<mxfile host="app.diagrams.net" modified="2023-10-03T08:09:15.127Z" agent="Mozilla/5.0 (Windows NT 10.0; Win64; x64) AppleWebKit/537.36 (KHTML, like Gecko) Chrome/117.0.0.0 Safari/537.36" version="22.0.0" etag="3f-7rRqDZIa7BqXP0UVO" type="github">
  <diagram name="Page-1" id="tPi8gJsOQE4V7za_MiJN">
    <mxGraphModel>
      <root>
        <mxCell id="0" />
        <mxCell id="1" parent="0" />
      </root>
    </mxGraphModel>
  </diagram>
</mxfile>
